<svg xmlns="http://www.w3.org/2000/svg" viewBox="0 0 35.64 25.07"><g id="Layer_2" data-name="Layer 2"><g id="Layer_1-2" data-name="Layer 1"><path d="M0,2.72c.05-.19.1-.38.16-.57A3.15,3.15,0,0,1,3.14,0H32.33a3.11,3.11,0,0,1,3.19,2.33,3.64,3.64,0,0,1,.11.93q0,9.27,0,18.55a3.12,3.12,0,0,1-3.27,3.25h-29a3.14,3.14,0,0,1-3.3-2.59.5.5,0,0,0,0-.13Zm3.65-.61.24.25,13,13a1.22,1.22,0,0,0,1.89,0l13-13c.07-.07.12-.15.21-.24ZM3.62,23H32l-8.95-8.88-.25.23L20.2,16.92a3.3,3.3,0,0,1-4.76,0l-1.57-1.58-1.28-1.28ZM2.1,21.34,11,12.53,2.1,3.7ZM33.53,3.68l-8.94,8.86,8.94,8.85Z"/></g></g></svg>