<svg xmlns="http://www.w3.org/2000/svg" viewBox="0 0 30.82 39.24"><defs><style>.cls-1{fill:none;stroke:#000;stroke-miterlimit:10;stroke-width:2.5px;}</style></defs><g id="Layer_2" data-name="Layer 2"><g id="Layer_1-2" data-name="Layer 1"><path class="cls-1" d="M15.41,37.64a53.29,53.29,0,0,1-7.2-7,35,35,0,0,1-5.15-7.81,17.88,17.88,0,0,1-1.81-7.8A14.16,14.16,0,0,1,28.85,11,14.86,14.86,0,0,1,28.52,21a30.09,30.09,0,0,1-4.78,8.27,52.36,52.36,0,0,1-7.81,7.94Zm0-29a6.74,6.74,0,1,0,6.75,6.75A6.74,6.74,0,0,0,15.4,8.66Z"/></g></g></svg>