<svg xmlns="http://www.w3.org/2000/svg" viewBox="0 0 35.64 35.71"><defs><style>.cls-1{fill:#1a1a1a;}</style></defs><g id="Layer_2" data-name="Layer 2"><g id="Layer_1-2" data-name="Layer 1"><path class="cls-1" d="M12.47,0H23.15l2.5.14a12,12,0,0,1,4.23.94,9.32,9.32,0,0,1,5.55,7.6c.09.61.14,1.24.21,1.86V24.91l-.06.48c-.1.78-.14,1.58-.3,2.35a9.14,9.14,0,0,1-5.91,7.11,13.84,13.84,0,0,1-4.9.8c-3.78,0-7.55.07-11.33.05a24.07,24.07,0,0,1-5.55-.46,9.18,9.18,0,0,1-6.46-5.16,12.87,12.87,0,0,1-1.07-5.4C0,20.82,0,17,0,13.1A34.33,34.33,0,0,1,.36,8.24,9.05,9.05,0,0,1,4,2.13,10.85,10.85,0,0,1,9.9.14C10.76.08,11.62.05,12.47,0Zm5.39,32.57v-.06c.94,0,1.89,0,2.83,0,2-.08,4,0,6-.3A5.81,5.81,0,0,0,32,27.55a15,15,0,0,0,.39-3.41q.09-5.4.05-10.78A33.31,33.31,0,0,0,32.2,9a5.93,5.93,0,0,0-5-5.37,20.33,20.33,0,0,0-3.74-.34c-3.13,0-6.26,0-9.39,0a30.92,30.92,0,0,0-5.35.29,6,6,0,0,0-5.12,4.9A19.26,19.26,0,0,0,3.28,12q-.09,4.29,0,8.58c0,2,.07,4,.27,6.06a5.91,5.91,0,0,0,2.83,4.65,7.71,7.71,0,0,0,3.82,1.06C12.72,32.46,15.29,32.5,17.86,32.57Z"/><path class="cls-1" d="M8.66,17.86A9.18,9.18,0,1,1,17.84,27,9.19,9.19,0,0,1,8.66,17.86Zm3.24,0a5.95,5.95,0,1,0,5.94-5.94A5.93,5.93,0,0,0,11.9,17.86Z"/><path class="cls-1" d="M27.43,6.19a2.11,2.11,0,0,1,2.09,2.2,2.14,2.14,0,1,1-2.09-2.2Z"/></g></g></svg>